<?xml version="1.0" encoding="utf-8"?>
<!-- Generator: Adobe Illustrator 16.0.0, SVG Export Plug-In . SVG Version: 6.00 Build 0)  -->
<!DOCTYPE svg PUBLIC "-//W3C//DTD SVG 1.1//EN" "http://www.w3.org/Graphics/SVG/1.1/DTD/svg11.dtd">
<svg version="1.1" id="Layer_1" xmlns="http://www.w3.org/2000/svg" xmlns:xlink="http://www.w3.org/1999/xlink" x="0px" y="0px"
	 width="383.952px" height="383.952px" viewBox="0 0 383.952 383.952" enable-background="new 0 0 383.952 383.952"
	 xml:space="preserve">
<g>
	<path fill-rule="evenodd" clip-rule="evenodd" fill="#FF8243" d="M383.952,179.978c0,7.999,0,15.998,0,23.997
		c-0.582,4.688-1.088,9.388-1.756,14.064c-5.476,38.349-20.885,72.2-46.655,101.109c-29.576,33.178-66.33,53.892-110.14,61.817
		c-7.091,1.282-14.282,2.005-21.427,2.986c-7.999,0-15.998,0-23.997,0c-4.683-0.579-9.378-1.08-14.048-1.75
		c-38.205-5.473-71.966-20.77-100.823-46.406c-33.332-29.613-54.15-66.435-62.115-110.374C1.705,218.325,0.983,211.126,0,203.975
		c0-7.999,0-15.998,0-23.997c0.839-6.415,1.467-12.866,2.551-19.241C9.34,120.801,26.862,86.25,55.306,57.419
		c28.715-29.106,63.271-47.378,103.606-54.47c6.979-1.227,14.042-1.979,21.066-2.949c7.999,0,15.998,0,23.997,0
		c6.537,0.853,13.112,1.485,19.605,2.595c36.055,6.164,67.959,21.23,95.281,45.544c33.404,29.726,54.293,66.642,62.144,110.761
		C382.247,165.879,382.982,172.949,383.952,179.978z M191.889,104.738c-32.486,0-64.971-0.015-97.457,0.007
		c-16.252,0.011-26.168,9.92-26.173,26.123c-0.011,40.732-0.011,81.465,0,122.197c0.005,16.211,9.914,26.138,26.159,26.143
		c65.097,0.019,130.193,0.015,195.29-0.02c2.481-0.001,5.035-0.091,7.43-0.666c11.374-2.729,18.54-12.229,18.549-24.507
		c0.028-40.857-0.269-81.717,0.16-122.57c0.153-14.674-10.135-27.115-26.877-26.854C256.616,105.095,224.25,104.737,191.889,104.738
		z"/>
	<path fill-rule="evenodd" clip-rule="evenodd" fill="#FF8243" d="M0,203.975c0.983,7.151,1.705,14.351,2.991,21.447
		c7.965,43.939,28.783,80.761,62.115,110.374c28.857,25.637,62.618,40.934,100.823,46.406c4.67,0.67,9.365,1.171,14.048,1.75
		c-59.993,0-119.985,0-179.978,0C0,323.96,0,263.967,0,203.975z"/>
	<path fill-rule="evenodd" clip-rule="evenodd" fill="#FF8243" d="M203.975,383.952c7.145-0.981,14.336-1.704,21.427-2.986
		c43.81-7.926,80.563-28.64,110.14-61.817c25.771-28.909,41.18-62.761,46.655-101.109c0.668-4.677,1.174-9.376,1.756-14.064
		c0,59.992,0,119.985,0,179.978C323.96,383.952,263.967,383.952,203.975,383.952z"/>
	<path fill-rule="evenodd" clip-rule="evenodd" fill="#FF8243" d="M383.952,179.978c-0.97-7.028-1.705-14.098-2.947-21.077
		c-7.851-44.119-28.739-81.035-62.144-110.761c-27.322-24.314-59.227-39.38-95.281-45.544c-6.493-1.11-13.068-1.742-19.605-2.595
		c59.992,0,119.985,0,179.978,0C383.952,59.992,383.952,119.985,383.952,179.978z"/>
	<path fill-rule="evenodd" clip-rule="evenodd" fill="#FF8243" d="M179.978,0c-7.024,0.971-14.087,1.722-21.066,2.949
		c-40.335,7.092-74.891,25.363-103.606,54.47C26.862,86.25,9.34,120.801,2.551,160.737C1.467,167.111,0.839,173.563,0,179.978
		C0,120.047,0,60.117,0,0C59.992,0,119.985,0,179.978,0z"/>
	<path fill-rule="evenodd" clip-rule="evenodd" fill="#FCF7F5" d="M191.889,104.738c32.361,0,64.728,0.357,97.08-0.148
		c16.742-0.261,27.03,12.18,26.877,26.854c-0.429,40.853-0.132,81.713-0.16,122.57c-0.009,12.278-7.175,21.778-18.549,24.507
		c-2.395,0.575-4.948,0.665-7.43,0.666c-65.097,0.034-130.193,0.038-195.29,0.02c-16.245-0.005-26.154-9.932-26.159-26.143
		c-0.011-40.732-0.011-81.465,0-122.197c0.005-16.203,9.92-26.112,26.173-26.123C126.917,104.723,159.403,104.738,191.889,104.738z
		 M295.816,134.647c-2.314,1.821-3.771,2.959-5.217,4.107c-30.328,24.081-60.65,48.167-90.984,72.24
		c-5.601,4.446-9.658,4.457-15.136,0.106c-24.75-19.655-49.497-39.314-74.248-58.968c-7.1-5.638-14.211-11.262-22.096-17.509
		c0,2.227,0,3.534,0,4.839c0,37.488-0.002,74.976,0.002,112.464c0.001,6.731,0.797,7.513,7.567,7.513
		c64.104,0.001,128.208,0.001,192.312,0c7.077,0,7.797-0.701,7.798-7.662c0.004-37.363,0.002-74.726,0.002-112.088
		C295.816,138.337,295.816,136.985,295.816,134.647z M107.428,124.661c1.3,0.978,1.707,1.27,2.097,1.58
		c26.713,21.205,53.446,42.384,80.096,63.667c2.089,1.668,3.279,1.136,5.061-0.285c26.281-20.945,52.611-41.829,78.944-62.708
		c0.726-0.575,1.624-0.932,2.441-1.391c-0.263-0.288-0.524-0.576-0.787-0.863C219.738,124.661,164.195,124.661,107.428,124.661z"/>
	<path fill-rule="evenodd" clip-rule="evenodd" fill="#FF8243" d="M295.816,134.647c0,2.338,0,3.689,0,5.042
		c0,37.363,0.002,74.725-0.002,112.088c-0.001,6.961-0.721,7.662-7.798,7.662c-64.104,0.001-128.208,0.001-192.312,0
		c-6.77,0-7.566-0.781-7.567-7.513c-0.004-37.488-0.002-74.976-0.002-112.464c0-1.306,0-2.612,0-4.839
		c7.885,6.247,14.996,11.871,22.096,17.509c24.751,19.653,49.498,39.313,74.248,58.968c5.478,4.351,9.535,4.34,15.136-0.106
		c30.334-24.073,60.656-48.159,90.984-72.24C292.046,137.606,293.502,136.469,295.816,134.647z"/>
	<path fill-rule="evenodd" clip-rule="evenodd" fill="#FF8243" d="M107.428,124.661c56.767,0,112.31,0,167.853,0
		c0.263,0.288,0.524,0.575,0.787,0.863c-0.817,0.459-1.716,0.816-2.441,1.391c-26.333,20.879-52.663,41.763-78.944,62.708
		c-1.782,1.421-2.972,1.953-5.061,0.285c-26.65-21.283-53.383-42.462-80.096-63.667
		C109.135,125.931,108.729,125.639,107.428,124.661z"/>
</g>
</svg>
