<?xml version="1.0" encoding="utf-8"?>
<!-- Generator: Adobe Illustrator 16.0.0, SVG Export Plug-In . SVG Version: 6.00 Build 0)  -->
<!DOCTYPE svg PUBLIC "-//W3C//DTD SVG 1.1//EN" "http://www.w3.org/Graphics/SVG/1.1/DTD/svg11.dtd">
<svg version="1.1" id="Layer_1" xmlns="http://www.w3.org/2000/svg" xmlns:xlink="http://www.w3.org/1999/xlink" x="0px" y="0px"
	 width="383.952px" height="383.952px" viewBox="0 0 383.952 383.952" enable-background="new 0 0 383.952 383.952"
	 xml:space="preserve">
<g>
	<path fill-rule="evenodd" clip-rule="evenodd" fill="#FFFFFF" d="M179.978,0c7.999,0,15.998,0,23.997,0
		c6.415,0.827,12.867,1.434,19.239,2.517c36.451,6.201,68.679,21.432,96.209,46.118c33.084,29.667,53.787,66.418,61.582,110.265
		c1.241,6.979,1.978,14.049,2.947,21.077c0,7.999,0,15.998,0,23.997c-0.214,0.964-0.55,1.918-0.623,2.893
		c-2.262,29.617-10.758,57.347-26.222,82.681c-30.471,49.92-74.479,80.613-132.078,91.465c-6.956,1.311-14.033,1.976-21.055,2.939
		c-7.999,0-15.998,0-23.997,0c-4.683-0.579-9.378-1.08-14.048-1.75c-38.204-5.473-71.964-20.773-100.82-46.408
		C31.778,306.183,10.958,269.36,2.991,225.422C1.705,218.325,0.983,211.126,0,203.975c0-7.999,0-15.998,0-23.997
		c0.575-4.688,1.063-9.39,1.738-14.063C7.784,124.068,25.427,87.858,55.05,57.692c28.742-29.268,63.393-47.624,103.862-54.743
		C165.891,1.722,172.953,0.971,179.978,0z M242.933,87.806c-0.492-0.171-0.842-0.399-1.189-0.396
		c-13.858,0.108-27.791-0.611-41.557,0.582c-16.974,1.471-29.228,10.686-34.655,27.181c-2.108,6.408-2.793,13.408-3.264,20.198
		c-0.541,7.818-0.125,15.702-0.125,23.981c-7.384,0-14.448,0-21.675,0c0,13.332,0,26.234,0,39.501c7.305,0,14.366,0,21.789,0
		c0,37.167,0,73.97,0,110.947c15.543,0,30.71,0,46.335,0c0-37.131,0-74.024,0-111.261c10.646,0,20.834,0,31.15,0
		c1.342-13.161,2.65-25.99,4.001-39.23c-12.04,0-23.491,0-35.254,0c0-7.204-0.006-14.053,0.001-20.901
		c0.009-10.023,2.859-12.84,12.995-12.845c7.082-0.003,14.164,0,21.448,0C242.933,112.667,242.933,100.232,242.933,87.806z"/>
	<path fill-rule="evenodd" clip-rule="evenodd" fill="#FFFFFF" d="M0,203.975c0.983,7.151,1.705,14.351,2.991,21.447
		c7.967,43.938,28.787,80.761,62.119,110.372c28.855,25.635,62.616,40.936,100.82,46.408c4.67,0.67,9.365,1.171,14.048,1.75
		c-59.993,0-119.985,0-179.978,0C0,323.96,0,263.967,0,203.975z"/>
	<path fill-rule="evenodd" clip-rule="evenodd" fill="#FFFFFF" d="M203.975,383.952c7.021-0.964,14.099-1.629,21.055-2.939
		c57.599-10.852,101.607-41.545,132.078-91.465c15.464-25.334,23.96-53.063,26.222-82.681c0.073-0.975,0.409-1.929,0.623-2.893
		c0,59.992,0,119.985,0,179.978C323.96,383.952,263.967,383.952,203.975,383.952z"/>
	<path fill-rule="evenodd" clip-rule="evenodd" fill="#FFFFFF" d="M179.978,0c-7.024,0.971-14.087,1.722-21.065,2.949
		c-40.469,7.12-75.12,25.476-103.862,54.743C25.427,87.858,7.784,124.068,1.738,165.914c-0.675,4.673-1.164,9.375-1.738,14.063
		C0,120.047,0,60.117,0,0C59.992,0,119.985,0,179.978,0z"/>
	<path fill-rule="evenodd" clip-rule="evenodd" fill="#FFFFFF" d="M383.952,179.978c-0.97-7.028-1.706-14.098-2.947-21.077
		c-7.795-43.847-28.498-80.598-61.582-110.265c-27.53-24.687-59.758-39.917-96.209-46.118C216.842,1.434,210.39,0.827,203.975,0
		c59.992,0,119.985,0,179.978,0C383.952,59.992,383.952,119.985,383.952,179.978z"/>
	<path fill-rule="evenodd" clip-rule="evenodd" fill="#FF8243" d="M242.933,87.806c0,12.426,0,24.862,0,37.756
		c-7.284,0-14.366-0.003-21.448,0c-10.136,0.004-12.986,2.821-12.995,12.845c-0.007,6.849-0.001,13.697-0.001,20.901
		c11.763,0,23.214,0,35.254,0c-1.351,13.24-2.659,26.069-4.001,39.23c-10.316,0-20.505,0-31.15,0c0,37.236,0,74.13,0,111.261
		c-15.625,0-30.792,0-46.335,0c0-36.978,0-73.78,0-110.947c-7.422,0-14.483,0-21.789,0c0-13.267,0-26.169,0-39.501
		c7.228,0,14.291,0,21.675,0c0-8.279-0.415-16.163,0.125-23.981c0.47-6.79,1.155-13.79,3.264-20.198
		c5.427-16.496,17.681-25.71,34.655-27.181c13.766-1.193,27.698-0.473,41.557-0.582C242.091,87.406,242.44,87.635,242.933,87.806z"
		/>
</g>
</svg>
