<?xml version="1.0" encoding="utf-8"?>
<!-- Generator: Adobe Illustrator 16.0.0, SVG Export Plug-In . SVG Version: 6.00 Build 0)  -->
<!DOCTYPE svg PUBLIC "-//W3C//DTD SVG 1.1//EN" "http://www.w3.org/Graphics/SVG/1.1/DTD/svg11.dtd">
<svg version="1.1" id="Layer_1" focusable="false" xmlns="http://www.w3.org/2000/svg" xmlns:xlink="http://www.w3.org/1999/xlink"
	 x="0px" y="0px" width="612px" height="596.709px" viewBox="0 90 612 596.709" enable-background="new 0 90 612 596.709"
	 xml:space="preserve">
<path fill="#FF8243" d="M204.699,570.47c0,2.468-2.838,4.441-6.416,4.441c-4.072,0.37-6.91-1.604-6.91-4.441
	c0-2.468,2.838-4.442,6.416-4.442C201.491,565.657,204.699,567.632,204.699,570.47z M166.326,564.917
	c-0.864,2.468,1.604,5.306,5.306,6.046c3.208,1.233,6.91,0,7.65-2.468c0.741-2.468-1.604-5.306-5.306-6.416
	C170.768,561.215,167.189,562.449,166.326,564.917L166.326,564.917z M220.863,562.819c-3.578,0.863-6.046,3.208-5.676,6.046
	c0.37,2.468,3.578,4.072,7.28,3.208c3.578-0.863,6.046-3.208,5.676-5.676C227.772,564.053,224.441,562.449,220.863,562.819z
	 M302.052,90C130.914,90,0,219.927,0,391.064C0,527.9,86.124,644.995,209.141,686.206c15.793,2.838,21.346-6.909,21.346-14.93
	c0-7.649-0.37-49.848-0.37-75.76c0,0-86.371,18.509-104.509-36.769c0,0-14.066-35.906-34.301-45.16c0,0-28.256-19.372,1.974-19.002
	c0,0,30.723,2.468,47.627,31.834c27.021,47.628,72.305,33.932,89.949,25.788c2.838-19.742,10.858-33.438,19.742-41.581
	c-68.973-7.65-138.563-17.645-138.563-136.343c0-33.931,9.377-50.958,29.119-72.675c-3.208-8.02-13.696-41.088,3.208-83.78
	c25.788-8.021,85.137,33.314,85.137,33.314c24.677-6.91,51.206-10.488,77.487-10.488c26.281,0,52.81,3.578,77.487,10.488
	c0,0,59.349-41.458,85.137-33.314c16.904,42.815,6.416,75.76,3.208,83.78c19.742,21.839,31.834,38.867,31.834,72.675
	c0,119.069-72.675,128.57-141.648,136.343c11.352,9.747,20.976,28.255,20.976,57.251c0,41.582-0.37,93.034-0.37,103.152
	c0,8.02,5.676,17.768,21.346,14.93C528.344,644.995,612,527.9,612,391.064C612,219.927,473.189,90,302.052,90z M119.932,515.563
	c-1.604,1.233-1.234,4.071,0.864,6.416c1.974,1.974,4.812,2.838,6.416,1.233c1.604-1.233,1.234-4.071-0.863-6.416
	C124.374,514.821,121.536,513.958,119.932,515.563z M106.606,505.567c-0.864,1.604,0.37,3.578,2.838,4.813
	c1.974,1.233,4.442,0.863,5.306-0.864c0.864-1.604-0.37-3.578-2.838-4.812C109.444,503.964,107.47,504.334,106.606,505.567z
	 M146.584,549.493c-1.974,1.604-1.234,5.306,1.604,7.65c2.838,2.838,6.416,3.208,8.02,1.234c1.604-1.604,0.864-5.306-1.604-7.65
	C151.89,547.89,148.188,547.52,146.584,549.493z M132.518,531.355c-1.974,1.234-1.974,4.442,0,7.28s5.306,4.071,6.91,2.838
	c1.974-1.604,1.974-4.813,0-7.65C137.7,530.985,134.492,529.752,132.518,531.355L132.518,531.355z"/>
</svg>
