<?xml version="1.0" encoding="utf-8"?>
<!-- Generator: Adobe Illustrator 16.0.0, SVG Export Plug-In . SVG Version: 6.00 Build 0)  -->
<!DOCTYPE svg PUBLIC "-//W3C//DTD SVG 1.1//EN" "http://www.w3.org/Graphics/SVG/1.1/DTD/svg11.dtd">
<svg version="1.1" id="Layer_1" xmlns="http://www.w3.org/2000/svg" xmlns:xlink="http://www.w3.org/1999/xlink" x="0px" y="0px"
	 width="223.363px" height="205.912px" viewBox="0 0 223.363 205.912" enable-background="new 0 0 223.363 205.912"
	 xml:space="preserve">
<g>
	<g>
		<path fill="#FFFFFF" d="M188.724,111.097c0-40.309-32.677-72.986-72.985-72.986c-40.309,0-72.986,32.677-72.986,72.986
			c0,36.066,26.168,66.003,60.549,71.908l12.437,16.541l12.437-16.541C162.556,177.1,188.724,147.164,188.724,111.097z"/>
		<g>
			<path fill="#FFD07F" d="M112.159,204.972l-12.717-16.914c-35.226-6.146-60.769-36.55-60.769-72.368
				c0-40.52,32.966-73.485,73.485-73.485c40.521,0,73.486,32.965,73.486,73.485c0,35.819-25.544,66.222-60.77,72.368
				L112.159,204.972z M112.159,43.205c-39.969,0-72.485,32.517-72.485,72.485c0,35.396,25.29,65.431,60.134,71.417l0.195,0.033
				l12.156,16.167l12.156-16.167l0.195-0.033c34.845-5.986,60.135-36.021,60.135-71.417
				C184.646,75.721,152.128,43.205,112.159,43.205z"/>
		</g>
		<g>
			<path fill="#FF8243" d="M55.673,95.232c0-1.224,0.23-2.429,0.692-3.615c0.461-1.187,1.135-2.25,2.02-3.192
				c0.885-0.941,1.958-1.704,3.22-2.288c1.261-0.583,2.702-0.875,4.321-0.875c1.939,0,3.62,0.4,5.042,1.201
				c1.421,0.8,2.48,1.86,3.178,3.177l-4.209,2.994c-0.188-0.489-0.438-0.894-0.748-1.214s-0.654-0.574-1.031-0.763
				c-0.376-0.188-0.767-0.32-1.172-0.396c-0.405-0.075-0.796-0.113-1.172-0.113c-0.791,0-1.474,0.155-2.048,0.466
				c-0.575,0.311-1.045,0.716-1.412,1.214c-0.367,0.5-0.641,1.064-0.819,1.695c-0.179,0.631-0.268,1.257-0.268,1.878
				c0,0.697,0.103,1.365,0.31,2.005c0.208,0.641,0.509,1.206,0.904,1.695c0.396,0.49,0.88,0.881,1.454,1.172
				c0.575,0.292,1.22,0.438,1.935,0.438c0.376,0,0.763-0.043,1.158-0.127c0.396-0.084,0.777-0.226,1.145-0.423
				c0.367-0.198,0.696-0.452,0.988-0.763c0.292-0.311,0.522-0.692,0.692-1.144l4.491,2.683c-0.301,0.734-0.758,1.394-1.37,1.978
				c-0.612,0.584-1.309,1.073-2.09,1.469c-0.782,0.396-1.62,0.697-2.514,0.904c-0.895,0.207-1.765,0.311-2.612,0.311
				c-1.487,0-2.849-0.296-4.082-0.89c-1.234-0.593-2.297-1.379-3.192-2.358c-0.894-0.979-1.586-2.09-2.076-3.333
				C55.918,97.773,55.673,96.512,55.673,95.232z"/>
			<path fill="#FF8243" d="M85.02,105.598c-1.524,0-2.909-0.292-4.152-0.875c-1.243-0.583-2.307-1.351-3.192-2.302
				c-0.885-0.95-1.572-2.038-2.062-3.262c-0.49-1.224-0.734-2.485-0.734-3.785c0-1.318,0.254-2.589,0.763-3.813
				c0.508-1.224,1.219-2.302,2.132-3.234c0.914-0.932,1.996-1.676,3.248-2.231c1.252-0.555,2.623-0.833,4.11-0.833
				c1.525,0,2.909,0.292,4.152,0.875c1.243,0.584,2.306,1.356,3.191,2.316c0.885,0.961,1.567,2.053,2.048,3.277
				c0.48,1.224,0.72,2.476,0.72,3.756c0,1.318-0.254,2.584-0.762,3.799c-0.509,1.215-1.215,2.288-2.119,3.22
				s-1.982,1.681-3.234,2.246C87.877,105.315,86.507,105.598,85.02,105.598z M80.473,95.429c0,0.678,0.094,1.333,0.282,1.963
				c0.188,0.631,0.471,1.191,0.847,1.68c0.376,0.49,0.852,0.886,1.426,1.187c0.575,0.302,1.257,0.452,2.048,0.452
				s1.479-0.155,2.063-0.466c0.583-0.311,1.059-0.715,1.426-1.214c0.367-0.499,0.639-1.069,0.819-1.709
				c0.179-0.64,0.269-1.29,0.269-1.949c0-0.678-0.095-1.332-0.283-1.963s-0.476-1.187-0.861-1.667
				c-0.386-0.48-0.866-0.866-1.44-1.158c-0.574-0.292-1.247-0.438-2.02-0.438c-0.791,0-1.474,0.151-2.047,0.452
				c-0.575,0.301-1.05,0.702-1.426,1.201c-0.377,0.499-0.654,1.064-0.833,1.694C80.562,94.125,80.473,94.771,80.473,95.429z"/>
			<path fill="#FF8243" d="M112.756,105.428V94.865l-3.361,7.428h-2.937l-3.361-7.428v10.563h-5.508V85.374h6.016l4.321,9.434
				l4.351-9.434h5.987v20.054H112.756z"/>
			<path fill="#FF8243" d="M121.709,105.428V85.374h5.508v20.054H121.709z"/>
			<path fill="#FF8243" d="M136.17,95.571v9.857h-5.508V85.374h4.294l8.05,10.197V85.374h5.508v20.054h-4.378L136.17,95.571z"/>
			<path fill="#FF8243" d="M165.573,103.762c-1.431,1.205-3.078,1.808-4.942,1.808c-1.3,0-2.543-0.23-3.729-0.692
				c-1.187-0.461-2.223-1.134-3.107-2.02c-0.885-0.885-1.592-1.967-2.118-3.249c-0.527-1.28-0.791-2.74-0.791-4.377
				c0-1.413,0.264-2.726,0.791-3.94c0.526-1.214,1.252-2.269,2.175-3.163s2.01-1.601,3.263-2.119
				c1.252-0.518,2.603-0.777,4.053-0.777c0.903,0,1.77,0.099,2.599,0.296c0.828,0.198,1.596,0.49,2.302,0.876
				c0.706,0.386,1.342,0.847,1.907,1.384c0.564,0.536,1.025,1.144,1.384,1.821l-4.096,3.135c-0.396-0.791-0.988-1.426-1.779-1.906
				s-1.629-0.72-2.515-0.72c-0.658,0-1.261,0.132-1.807,0.396c-0.547,0.264-1.018,0.631-1.413,1.102s-0.706,1.031-0.932,1.68
				c-0.226,0.65-0.339,1.361-0.339,2.132c0,0.791,0.113,1.507,0.339,2.147s0.541,1.191,0.946,1.652
				c0.404,0.461,0.89,0.819,1.454,1.073c0.565,0.255,1.196,0.382,1.894,0.382c1.6,0,3.012-0.659,4.236-1.978h-3.475v-3.954h8.248
				v10.677h-4.548V103.762z"/>
		</g>
		<g>
			<path fill="#FF8243" d="M72.432,117.48c-0.832-0.499-1.692-0.942-2.579-1.331c-0.749-0.333-1.588-0.645-2.517-0.936
				c-0.929-0.291-1.837-0.437-2.724-0.437c-0.721,0-1.296,0.11-1.726,0.332c-0.43,0.223-0.645,0.597-0.645,1.123
				c0,0.389,0.125,0.707,0.374,0.957c0.25,0.249,0.61,0.479,1.082,0.687c0.471,0.207,1.046,0.409,1.726,0.603
				c0.679,0.194,1.449,0.431,2.309,0.707c1.358,0.416,2.585,0.874,3.681,1.373c1.095,0.499,2.031,1.088,2.808,1.768
				c0.775,0.68,1.372,1.504,1.788,2.475s0.624,2.148,0.624,3.535c0,1.774-0.326,3.265-0.977,4.471
				c-0.652,1.206-1.512,2.17-2.579,2.891c-1.068,0.722-2.274,1.241-3.619,1.561c-1.345,0.317-2.697,0.478-4.055,0.478
				c-1.081,0-2.19-0.083-3.327-0.249c-1.138-0.167-2.268-0.402-3.39-0.707c-1.124-0.305-2.205-0.666-3.245-1.082
				c-1.039-0.416-2.003-0.887-2.89-1.414l3.494-7.112c0.971,0.61,1.982,1.151,3.036,1.623c0.888,0.415,1.893,0.79,3.016,1.122
				c1.123,0.333,2.267,0.499,3.431,0.499c0.888,0,1.504-0.117,1.852-0.354c0.346-0.234,0.52-0.547,0.52-0.936
				c0-0.416-0.174-0.77-0.52-1.061c-0.347-0.291-0.826-0.547-1.435-0.77c-0.61-0.222-1.311-0.443-2.101-0.665
				s-1.629-0.485-2.516-0.79c-1.304-0.443-2.427-0.922-3.369-1.436c-0.942-0.513-1.719-1.095-2.329-1.747
				c-0.61-0.65-1.061-1.393-1.352-2.225s-0.437-1.788-0.437-2.87c0-1.636,0.298-3.078,0.894-4.325
				c0.596-1.248,1.407-2.288,2.433-3.12c1.025-0.832,2.197-1.462,3.515-1.893c1.316-0.43,2.71-0.645,4.18-0.645
				c1.082,0,2.135,0.104,3.161,0.312c1.025,0.208,2.017,0.472,2.974,0.79c0.957,0.319,1.851,0.666,2.683,1.04
				c0.832,0.374,1.581,0.728,2.246,1.061L72.432,117.48z"/>
			<path fill="#FF8243" d="M93.519,137.61c-2.246,0-4.284-0.429-6.114-1.289c-1.829-0.858-3.396-1.989-4.699-3.39
				c-1.304-1.399-2.316-3.001-3.037-4.804c-0.721-1.802-1.082-3.66-1.082-5.573c0-1.94,0.374-3.813,1.123-5.615
				c0.749-1.802,1.795-3.389,3.141-4.762c1.344-1.373,2.938-2.467,4.783-3.286c1.843-0.817,3.861-1.227,6.051-1.227
				c2.246,0,4.284,0.431,6.114,1.29c1.83,0.86,3.396,1.997,4.7,3.411c1.303,1.414,2.308,3.022,3.015,4.825
				c0.707,1.803,1.061,3.646,1.061,5.531c0,1.941-0.375,3.806-1.123,5.595c-0.749,1.788-1.789,3.368-3.12,4.741
				s-2.918,2.475-4.762,3.307C97.726,137.194,95.708,137.61,93.519,137.61z M86.822,122.637c0,0.998,0.139,1.962,0.416,2.891
				c0.276,0.93,0.692,1.754,1.248,2.475c0.554,0.722,1.254,1.304,2.1,1.747c0.845,0.444,1.851,0.665,3.015,0.665
				c1.165,0,2.177-0.229,3.036-0.686c0.859-0.458,1.56-1.054,2.101-1.789c0.541-0.734,0.942-1.573,1.207-2.516
				c0.263-0.942,0.395-1.899,0.395-2.87c0-0.998-0.14-1.961-0.416-2.891c-0.278-0.929-0.701-1.747-1.269-2.454
				s-1.275-1.275-2.121-1.705c-0.846-0.43-1.837-0.645-2.974-0.645c-1.164,0-2.17,0.222-3.015,0.665
				c-0.847,0.444-1.546,1.033-2.101,1.768c-0.555,0.735-0.964,1.567-1.227,2.496S86.822,121.667,86.822,122.637z"/>
			<path fill="#FF8243" d="M125.336,137.61c-2.245,0-4.283-0.429-6.113-1.289c-1.83-0.858-3.397-1.989-4.7-3.39
				c-1.304-1.399-2.316-3.001-3.037-4.804c-0.721-1.802-1.082-3.66-1.082-5.573c0-1.94,0.375-3.813,1.124-5.615
				c0.748-1.802,1.794-3.389,3.14-4.762c1.344-1.373,2.939-2.467,4.783-3.286c1.844-0.817,3.861-1.227,6.052-1.227
				c2.246,0,4.284,0.431,6.114,1.29c1.83,0.86,3.396,1.997,4.699,3.411c1.304,1.414,2.309,3.022,3.016,4.825
				s1.061,3.646,1.061,5.531c0,1.941-0.374,3.806-1.123,5.595c-0.748,1.788-1.788,3.368-3.119,4.741s-2.919,2.475-4.763,3.307
				C129.544,137.194,127.526,137.61,125.336,137.61z M118.641,122.637c0,0.998,0.138,1.962,0.416,2.891
				c0.276,0.93,0.692,1.754,1.247,2.475c0.555,0.722,1.255,1.304,2.101,1.747c0.846,0.444,1.852,0.665,3.016,0.665
				s2.176-0.229,3.035-0.686c0.859-0.458,1.561-1.054,2.102-1.789c0.54-0.734,0.941-1.573,1.206-2.516
				c0.263-0.942,0.395-1.899,0.395-2.87c0-0.998-0.139-1.961-0.415-2.891c-0.278-0.929-0.701-1.747-1.27-2.454
				s-1.275-1.275-2.121-1.705s-1.837-0.645-2.974-0.645c-1.164,0-2.17,0.222-3.015,0.665c-0.847,0.444-1.547,1.033-2.101,1.768
				c-0.556,0.735-0.964,1.567-1.228,2.496S118.641,121.667,118.641,122.637z"/>
			<path fill="#FF8243" d="M151.955,122.845v14.516h-8.11v-29.53h6.322l11.854,15.015v-15.015h8.11v29.53h-6.447L151.955,122.845z"
				/>
		</g>
		<rect x="88.075" y="144.315" fill="#FF8243" width="55.325" height="0.952"/>
		<g>
			
				<rect x="185.11" y="18.029" transform="matrix(0.6659 0.746 -0.746 0.6659 89.9906 -125.9344)" fill="#FFD07F" width="1" height="38.97"/>
		</g>
		<g>
			
				<rect x="206.392" y="22.073" transform="matrix(0.5251 0.8511 -0.8511 0.5251 132.6137 -156.9045)" fill="#FFFFFF" width="1.001" height="36.591"/>
		</g>
		<g>
			
				<rect x="19.003" y="146.239" transform="matrix(0.4938 0.8696 -0.8696 0.4938 156.2389 68.2418)" fill="#FFFFFF" width="1.001" height="44.168"/>
		</g>
		<g>
			
				<rect x="35.614" y="159.081" transform="matrix(0.6137 0.7896 -0.7896 0.6137 148.9023 37.5167)" fill="#FFD07F" width="0.999" height="23.673"/>
		</g>
		<g>
			
				<rect x="-2.768" y="56.739" transform="matrix(0.8965 0.443 -0.443 0.8965 27.6163 -3.7519)" fill="#FFD07F" width="49.215" height="1"/>
		</g>
		<g>
			
				<rect x="14.929" y="26.632" transform="matrix(0.6849 0.7286 -0.7286 0.6849 30.0844 -15.3061)" fill="#FFFFFF" width="35.621" height="1"/>
		</g>
		<g>
			
				<rect x="180.357" y="174.052" transform="matrix(0.783 0.6221 -0.6221 0.783 152.9818 -89.3639)" fill="#FFD07F" width="48.397" height="1"/>
		</g>
		<g>
			
				<rect x="173.459" y="178.983" transform="matrix(0.6223 0.7828 -0.7828 0.6223 210.9044 -78.1095)" fill="#FFFFFF" width="25.86" height="1"/>
		</g>
		<g>
			
				<rect x="206.911" y="49.307" transform="matrix(0.2794 0.9602 -0.9602 0.2794 212.9013 -151.5456)" fill="#FFFFFF" width="1" height="33.512"/>
		</g>
		<g>
			
				<rect x="9.619" y="81.395" transform="matrix(0.9984 0.0565 -0.0565 0.9984 4.6651 -1.1912)" fill="#FFD07F" width="27.556" height="1"/>
		</g>
		<g>
			
				<rect x="68.151" y="15.731" transform="matrix(0.2788 0.9603 -0.9603 0.2788 76.8211 -69.8345)" fill="#FFFFFF" width="33.512" height="1.001"/>
		</g>
		<g>
			
				<rect x="156.605" y="193.776" transform="matrix(0.4307 0.9025 -0.9025 0.4307 271.6846 -42.1571)" fill="#FFD07F" width="25.307" height="1"/>
		</g>
		<g>
			<path fill="#FFD07F" d="M20.281,102.899c-2.422,0-4.393-1.971-4.393-4.393s1.971-4.393,4.393-4.393
				c2.423,0,4.394,1.971,4.394,4.393S22.704,102.899,20.281,102.899z M20.281,95.113c-1.871,0-3.393,1.522-3.393,3.393
				s1.521,3.393,3.393,3.393s3.394-1.522,3.394-3.393S22.152,95.113,20.281,95.113z"/>
		</g>
		<g>
			<path fill="#FFD07F" d="M160.693,26.075c-2.852,0-5.171-2.32-5.171-5.172s2.319-5.171,5.171-5.171s5.172,2.32,5.172,5.171
				S163.545,26.075,160.693,26.075z M160.693,16.731c-2.3,0-4.171,1.871-4.171,4.171s1.871,4.172,4.171,4.172
				c2.301,0,4.172-1.872,4.172-4.172S162.994,16.731,160.693,16.731z"/>
		</g>
		<g>
			<path fill="#FFFFFF" d="M206.893,114.837c-3.424,0-6.21-2.785-6.21-6.209s2.786-6.21,6.21-6.21s6.21,2.786,6.21,6.21
				S210.316,114.837,206.893,114.837z M206.893,103.418c-2.873,0-5.21,2.337-5.21,5.21s2.337,5.209,5.21,5.209
				s5.21-2.337,5.21-5.209S209.766,103.418,206.893,103.418z"/>
		</g>
		<g>
			<path fill="#FFFFFF" d="M130.662,27.113c-3.424,0-6.21-2.785-6.21-6.209s2.786-6.21,6.21-6.21s6.21,2.786,6.21,6.21
				S134.086,27.113,130.662,27.113z M130.662,15.693c-2.873,0-5.21,2.337-5.21,5.21s2.337,5.209,5.21,5.209s5.21-2.337,5.21-5.209
				S133.535,15.693,130.662,15.693z"/>
		</g>
		<g>
			<path fill="#FFFFFF" d="M54.281,199.968c-3.424,0-6.21-2.786-6.21-6.211c0-3.424,2.786-6.209,6.21-6.209s6.21,2.785,6.21,6.209
				C60.491,197.182,57.705,199.968,54.281,199.968z M54.281,188.548c-2.873,0-5.21,2.337-5.21,5.209c0,2.873,2.337,5.211,5.21,5.211
				s5.21-2.338,5.21-5.211C59.491,190.885,57.154,188.548,54.281,188.548z"/>
		</g>
		<g>
			<path fill="#FFD07F" d="M59.213,17.77c-3.281,0-5.95-2.669-5.95-5.951c0-3.281,2.669-5.95,5.95-5.95s5.95,2.669,5.95,5.95
				C65.163,15.1,62.494,17.77,59.213,17.77z M59.213,6.869c-2.729,0-4.95,2.221-4.95,4.95c0,2.73,2.221,4.951,4.95,4.951
				s4.95-2.221,4.95-4.951C64.163,9.089,61.942,6.869,59.213,6.869z"/>
		</g>
		<g>
			<path fill="#FFD07F" d="M209.487,202.563c-2.279,0-4.134-1.854-4.134-4.134c0-2.279,1.854-4.133,4.134-4.133
				s4.134,1.854,4.134,4.133C213.621,200.709,211.767,202.563,209.487,202.563z M209.487,195.296c-1.728,0-3.134,1.405-3.134,3.133
				s1.406,3.134,3.134,3.134s3.134-1.406,3.134-3.134S211.215,195.296,209.487,195.296z"/>
		</g>
	</g>
</g>
</svg>
