<?xml version="1.0" encoding="utf-8"?>
<!-- Generator: Adobe Illustrator 16.0.0, SVG Export Plug-In . SVG Version: 6.00 Build 0)  -->
<!DOCTYPE svg PUBLIC "-//W3C//DTD SVG 1.1//EN" "http://www.w3.org/Graphics/SVG/1.1/DTD/svg11.dtd">
<svg version="1.1" id="Layer_1" xmlns="http://www.w3.org/2000/svg" xmlns:xlink="http://www.w3.org/1999/xlink" x="0px" y="0px"
	 width="383.952px" height="383.952px" viewBox="0 0 383.952 383.952" enable-background="new 0 0 383.952 383.952"
	 xml:space="preserve">
<g>
	<g>
		<path fill-rule="evenodd" clip-rule="evenodd" fill="#FFFFFF" d="M203.975,383.952c-7.999,0-15.998,0-23.997,0
			c-4.683-0.579-9.377-1.08-14.048-1.75c-38.203-5.473-71.964-20.772-100.819-46.407c-33.332-29.611-54.153-66.432-62.118-110.371
			C1.706,218.327,0.983,211.127,0,203.975c0-7.999,0-15.998,0-23.997c0.575-4.688,1.063-9.389,1.739-14.063
			C7.785,124.07,25.426,87.858,55.05,57.693c28.742-29.268,63.393-47.624,103.862-54.744c6.979-1.228,14.042-1.979,21.066-2.949
			c7.999,0,15.998,0,23.997,0c6.415,0.827,12.867,1.434,19.239,2.517c36.451,6.201,68.678,21.432,96.209,46.118
			c33.085,29.667,53.786,66.419,61.583,110.266c1.241,6.979,1.977,14.049,2.946,21.077c0,7.999,0,15.998,0,23.997
			c-0.214,0.964-0.549,1.918-0.623,2.893c-2.259,29.618-10.758,57.347-26.222,82.681c-30.47,49.92-74.479,80.613-132.078,91.465
			C218.073,382.323,210.996,382.988,203.975,383.952z M108.351,210.707c7.305,18.911,20.843,28.757,41.049,30.915
			c-19.389,14.417-40.355,20.169-64.614,18.183c2.07,1.312,3.159,2.058,4.299,2.715c25.859,14.91,53.658,19.784,83.035,15.485
			c65.51-9.587,102.521-65.3,105.154-117.347c0.426-8.425,1.461-15.061,9.056-20.123c4.22-2.813,7.133-7.602,10.585-11.544
			c0.67-0.765,1.107-1.734,1.722-2.718c-7.75,2.078-15.18,4.069-22.609,6.06c-0.134-0.312-0.268-0.624-0.401-0.936
			c8.271-5.788,14.459-13.115,17.504-22.322c-8.079,2.882-16.135,5.745-24.182,8.634c-2.217,0.796-3.757,0.221-5.607-1.413
			c-13.426-11.851-28.872-15.21-45.607-8.801c-16.544,6.336-26.002,18.896-28.13,36.559c-0.57,4.728-0.086,9.582-0.086,14.647
			c-36.425-2.604-66.359-18.052-90.213-45.962c-4.46,7.467-6.253,15.283-5.932,23.547c0.562,14.475,7.114,25.915,18.598,34.741
			c-0.202,0.337-0.403,0.674-0.604,1.012c-6.034-1.684-12.067-3.368-18.561-5.18c1.503,21.99,12.879,36.165,33.925,42.934
			c-0.073,0.305-0.147,0.61-0.221,0.916C120.636,210.707,114.762,210.707,108.351,210.707z"/>
		<path fill-rule="evenodd" clip-rule="evenodd" fill="#FFFFFF" d="M0,203.975c0.983,7.152,1.706,14.353,2.993,21.449
			c7.965,43.939,28.787,80.76,62.118,110.371c28.855,25.635,62.616,40.935,100.819,46.407c4.67,0.67,9.365,1.171,14.048,1.75
			c-59.993,0-119.985,0-179.978,0C0,323.96,0,263.967,0,203.975z"/>
		<path fill-rule="evenodd" clip-rule="evenodd" fill="#FFFFFF" d="M203.975,383.952c7.021-0.964,14.099-1.629,21.055-2.939
			c57.599-10.852,101.608-41.545,132.078-91.465c15.464-25.334,23.963-53.063,26.222-82.681c0.074-0.975,0.409-1.929,0.623-2.893
			c0,59.992,0,119.985,0,179.978C323.96,383.952,263.967,383.952,203.975,383.952z"/>
		<path fill-rule="evenodd" clip-rule="evenodd" fill="#FFFFFF" d="M179.978,0c-7.024,0.971-14.087,1.722-21.066,2.949
			c-40.469,7.12-75.12,25.476-103.862,54.744C25.426,87.858,7.785,124.07,1.739,165.914c-0.675,4.674-1.164,9.375-1.739,14.063
			C0,120.047,0,60.117,0,0C59.992,0,119.985,0,179.978,0z"/>
		<path fill-rule="evenodd" clip-rule="evenodd" fill="#FFFFFF" d="M383.952,179.978c-0.97-7.028-1.705-14.098-2.946-21.077
			c-7.797-43.846-28.498-80.599-61.583-110.266c-27.531-24.686-59.758-39.917-96.209-46.118C216.842,1.434,210.39,0.827,203.975,0
			c59.992,0,119.985,0,179.978,0C383.952,59.992,383.952,119.985,383.952,179.978z"/>
	</g>
</g>
<path fill-rule="evenodd" clip-rule="evenodd" fill="#FF8243" d="M107.351,210.707c6.412,0,12.285,0,18.158,0
	c0.074-0.306,0.147-0.611,0.221-0.916c-21.045-6.77-32.422-20.944-33.925-42.934c6.494,1.812,12.527,3.496,18.561,5.18
	c0.202-0.337,0.403-0.674,0.604-1.012c-11.484-8.826-18.036-20.266-18.598-34.741c-0.321-8.264,1.472-16.08,5.932-23.547
	c23.854,27.91,53.788,43.359,90.213,45.962c0-5.065-0.484-9.919,0.086-14.647c2.128-17.662,11.586-30.222,28.13-36.559
	c16.735-6.409,32.182-3.05,45.607,8.801c1.851,1.634,3.391,2.209,5.607,1.413c8.047-2.889,16.103-5.751,24.182-8.634
	c-3.045,9.207-9.232,16.534-17.504,22.322c0.134,0.312,0.268,0.624,0.401,0.936c7.43-1.991,14.859-3.982,22.609-6.06
	c-0.614,0.984-1.052,1.953-1.722,2.718c-3.452,3.942-6.365,8.731-10.585,11.544c-7.595,5.062-8.63,11.698-9.056,20.123
	c-2.633,52.047-39.644,107.76-105.154,117.347c-29.377,4.299-57.176-0.575-83.035-15.485c-1.14-0.657-2.229-1.403-4.299-2.715
	c24.259,1.986,45.225-3.766,64.614-18.183C128.193,239.464,114.656,229.618,107.351,210.707z"/>
</svg>
